<svg width="186" height="49" viewBox="0 0 186 49" fill="none" xmlns="http://www.w3.org/2000/svg">
<path d="M102.922 9H72.9966C72.8121 9 72.6351 9.07326 72.5046 9.20385C72.374 9.3343 72.3008 9.5113 72.3008 9.696V39.6218C72.3008 39.8064 72.374 39.9834 72.5046 40.1138C72.6351 40.2444 72.8121 40.3177 72.9966 40.3177H102.922C103.107 40.3177 103.284 40.2444 103.415 40.1138C103.545 39.9834 103.618 39.8064 103.618 39.6218V9.696C103.618 9.5113 103.545 9.3343 103.415 9.20385C103.284 9.07326 103.107 9 102.922 9ZM93.1792 29.1825C93.1792 29.3671 93.1059 29.5441 92.9753 29.6747C92.8449 29.8051 92.6679 29.8785 92.4833 29.8785H83.4359C83.2514 29.8785 83.0744 29.8051 82.9438 29.6747C82.8133 29.5441 82.7401 29.3671 82.7401 29.1825V20.1351C82.7401 19.9506 82.8133 19.7736 82.9438 19.6431C83.0744 19.5125 83.2514 19.4393 83.4359 19.4393H92.4833C92.6679 19.4393 92.8449 19.5125 92.9753 19.6431C93.1059 19.7736 93.1792 19.9506 93.1792 20.1351V29.1825Z" fill="white"/>
<path d="M165.575 19.4404H156.528C156.144 19.4404 155.832 19.7519 155.832 20.1363V29.1837C155.832 29.5681 156.144 29.8797 156.528 29.8797H165.575C165.96 29.8797 166.271 29.5681 166.271 29.1837V20.1363C166.271 19.7519 165.96 19.4404 165.575 19.4404Z" fill="white"/>
<path d="M155.132 9.00098H146.085C145.7 9.00098 145.389 9.31248 145.389 9.69697V18.7442C145.389 19.1286 145.7 19.4402 146.085 19.4402H155.132C155.516 19.4402 155.828 19.1286 155.828 18.7442V9.69697C155.828 9.31248 155.516 9.00098 155.132 9.00098Z" fill="white"/>
<path d="M55.6225 30.1592H46.3782C45.9854 30.1592 45.667 30.4576 45.667 30.8259V39.4925C45.667 39.8606 45.9854 40.1592 46.3782 40.1592H55.6225C56.0154 40.1592 56.3337 39.8606 56.3337 39.4925V30.8259C56.3337 30.4576 56.0154 30.1592 55.6225 30.1592Z" fill="white"/>
<path d="M49.2221 19.6592H39.9778C39.585 19.6592 39.2666 19.9576 39.2666 20.3259V28.9925C39.2666 29.3606 39.585 29.6592 39.9778 29.6592H49.2221C49.615 29.6592 49.9333 29.3606 49.9333 28.9925V20.3259C49.9333 19.9576 49.615 19.6592 49.2221 19.6592Z" fill="white"/>
<path d="M63.0893 19.6592H53.845C53.4522 19.6592 53.1338 19.9576 53.1338 20.3259V28.9925C53.1338 29.3606 53.4522 29.6592 53.845 29.6592H63.0893C63.4822 29.6592 63.8005 29.3606 63.8005 28.9925V20.3259C63.8005 19.9576 63.4822 19.6592 63.0893 19.6592Z" fill="white"/>
<path d="M44.9555 9.15918H35.7112C35.3184 9.15918 35 9.45758 35 9.82589V18.4925C35 18.8606 35.3184 19.1592 35.7112 19.1592H44.9555C45.3484 19.1592 45.6667 18.8606 45.6667 18.4925V9.82589C45.6667 9.45758 45.3484 9.15918 44.9555 9.15918Z" fill="white"/>
<path d="M66.2885 9.15918H57.0442C56.6514 9.15918 56.333 9.45758 56.333 9.82589V18.4925C56.333 18.8606 56.6514 19.1592 57.0442 19.1592H66.2885C66.6814 19.1592 66.9997 18.8606 66.9997 18.4925V9.82589C66.9997 9.45758 66.6814 9.15918 66.2885 9.15918Z" fill="white"/>
<path d="M176.01 9.00098H166.963C166.578 9.00098 166.267 9.31248 166.267 9.69697V18.7442C166.267 19.1286 166.578 19.4402 166.963 19.4402H176.01C176.394 19.4402 176.706 19.1286 176.706 18.7442V9.69697C176.706 9.31248 176.394 9.00098 176.01 9.00098Z" fill="white"/>
<path d="M155.132 29.8789H146.085C145.7 29.8789 145.389 30.1904 145.389 30.5748V39.6222C145.389 40.0065 145.7 40.3182 146.085 40.3182H155.132C155.516 40.3182 155.828 40.0065 155.828 39.6222V30.5748C155.828 30.1904 155.516 29.8789 155.132 29.8789Z" fill="white"/>
<path d="M176.01 29.8789H166.963C166.578 29.8789 166.267 30.1904 166.267 30.5748V39.6222C166.267 40.0065 166.578 40.3182 166.963 40.3182H176.01C176.394 40.3182 176.706 40.0065 176.706 39.6222V30.5748C176.706 30.1904 176.394 29.8789 176.01 29.8789Z" fill="white"/>
<path d="M139.46 9.00098H130.413C130.028 9.00098 129.717 9.31248 129.717 9.69697V18.7442C129.717 19.1286 130.028 19.4402 130.413 19.4402H139.46C139.844 19.4402 140.156 19.1286 140.156 18.7442V9.69697C140.156 9.31248 139.844 9.00098 139.46 9.00098Z" fill="white"/>
<path d="M28.3333 9H19.6667C19.2985 9 19 9.26856 19 9.60004V17.4C19 17.7313 19.2985 18 19.6667 18H28.3333C28.7015 18 29 17.7313 29 17.4V9.60004C29 9.26856 28.7015 9 28.3333 9Z" fill="white"/>
<path d="M28.4 21H20.6C20.2687 21 20 21.2178 20 21.4867V27.8133C20 28.0821 20.2687 28.3 20.6 28.3H28.4C28.7313 28.3 29 28.0821 29 27.8133V21.4867C29 21.2178 28.7313 21 28.4 21Z" fill="white"/>
<path d="M28.3333 31.2998H19.6667C19.2985 31.2998 19 31.5684 19 31.8998V39.6998C19 40.0311 19.2985 40.2998 19.6667 40.2998H28.3333C28.7015 40.2998 29 40.0311 29 39.6998V31.8998C29 31.5684 28.7015 31.2998 28.3333 31.2998Z" fill="white"/>
<path d="M139.46 29.8789H130.413C130.028 29.8789 129.717 30.1904 129.717 30.5748V39.6222C129.717 40.0065 130.028 40.3182 130.413 40.3182H139.46C139.844 40.3182 140.156 40.0065 140.156 39.6222V30.5748C140.156 30.1904 139.844 29.8789 139.46 29.8789Z" fill="white"/>
<path d="M129.716 20.1273C129.716 19.9427 129.643 19.7657 129.513 19.6353C129.382 19.5047 129.205 19.4314 129.02 19.4314H119.277V9.696C119.277 9.5113 119.204 9.3343 119.073 9.20385C118.943 9.07326 118.766 9 118.581 9H109.534C109.349 9 109.172 9.07326 109.042 9.20385C108.911 9.3343 108.838 9.5113 108.838 9.696V39.6062C108.838 39.7907 108.911 39.9677 109.042 40.0982C109.172 40.2288 109.349 40.302 109.534 40.302H118.581C118.766 40.302 118.943 40.2288 119.073 40.0982C119.204 39.9677 119.277 39.7907 119.277 39.6062V29.8707H129.02C129.205 29.8707 129.382 29.7973 129.513 29.6669C129.643 29.5363 129.716 29.3593 129.716 29.1747V20.1273Z" fill="white"/>
<path d="M20.4393 9.696V29.8707V39.6062C20.4393 39.7907 20.3659 39.9677 20.2354 40.0982C20.1048 40.2288 19.9278 40.302 19.7433 40.302H10.696C10.5113 40.302 10.3343 40.2288 10.2038 40.0982C10.0733 39.9677 10 39.7907 10 39.6062V9.696C10 9.5113 10.0733 9.3343 10.2038 9.20385C10.3343 9.07326 10.5113 9 10.696 9H19.7433C19.9278 9 20.1048 9.07326 20.2354 9.20385C20.3659 9.3343 20.4393 9.5113 20.4393 9.696Z" fill="white"/>
</svg>
